<?xml version="1.0" encoding="utf-8"?>
<!-- Generator: Adobe Illustrator 21.0.0, SVG Export Plug-In . SVG Version: 6.00 Build 0)  -->
<svg version="1.1" id="_图层_1" xmlns="http://www.w3.org/2000/svg" xmlns:xlink="http://www.w3.org/1999/xlink" x="0px" y="0px"
	 viewBox="0 0 677 305" style="enable-background:new 0 0 677 305;" xml:space="preserve">
<style type="text/css">
	.st0{fill:#57A2DA;}
	.st1{fill:#FFFFFF;}
</style>
<rect x="-175" y="-371.3" width="1032" height="1037.3"/>
<g>
	<path class="st0" d="M493.4,66.5c-48.1-22-96.1-16.9-134.8,5.1c-13.8,7.8-56.3,39-21.5,58.5c0,0,0,0,0,0
		c16.2,8.5,32.3,21.6,31.4,45.5c-0.7,7.4-2.8,15.4-6.2,23.4c-0.5,1-1,2.1-1.5,3.2c-44.4,92.4-178.1,129.8-295.4,57
		c-1.9-1.2,1.9-2.5,3.9-3.2c0.9-0.3,105.5,66.4,209.2,2.2c90.5-56,51.5-98.5,28.2-105.6c0,0,0,0-0.1,0c-45.4-14.9-65.5-76,49.7-125
		c65.9-28,148.7-21.9,194.1,18C550.5,45.6,511.5,60.8,493.4,66.5L493.4,66.5z"/>
	<path class="st1" d="M46,65.6H150l-6.4,29H74.5l-7.1,31.9h60l-6,27h-60l-7.1,32.2h69.1l-6.4,29H13.1L46,65.6L46,65.6z"/>
	<path class="st1" d="M193.3,99.3l-3.1,13.8c12.4-9.1,27.7-14.5,41-14.5c21.8,0,32.4,14,27.9,34.5l-17.9,81.1h-33.8l16.7-75.4
		c1.8-8.3-4.7-14-14-14c-5.9,0-17.3,4.5-24.6,10.2l-17.5,79.2h-33.8l25.4-115H193.3z"/>
	<path class="st1" d="M397.7,99.7l7.2-32.8h31.7l-7.2,32.8h22l-5.7,26h-22l-10.9,49.4c-2.6,11.7-1.4,14.9,8.5,14.9
		c4.2,0,7-0.2,9.5-0.8l-5.8,26.2c-6.1,0.6-11.6,1.1-16.7,1.1c-9.7,0-16.7-1.1-21.1-3c-8.6-4-11.7-13.2-7.7-31.3l12.5-56.4h-16.5
		l5.7-26L397.7,99.7L397.7,99.7z"/>
	<path class="st1" d="M449.2,157.4c7.9-35.8,34.1-60.5,65.3-60.5c9.5,0,18.8,3.8,25.9,10l1.6-7.2h33.8l-19.5,88.1
		c-2.5,11.5-3,20.4-1.7,26.8h-31.7c-0.6-1.9-0.9-4.5-0.8-7.7c-10.2,7-21.3,10.4-33.4,10.4C457.2,217.5,441.1,194,449.2,157.4
		L449.2,157.4z M501.5,193c6.8,0,16.7-1.9,25-11.9l10.5-47.7c-3.9-10-12.8-11.7-19.8-11.7c-15,0-31.4,15.8-35.8,35.8
		C477.2,177,486.5,193,501.5,193L501.5,193z"/>
	<path class="st1" d="M630.7,99.7l-2.7,12.4c9.1-7.9,21.2-12.6,31.3-12.6c3.6,0,6.7,0.4,9.6,1.5l-5.8,26.2
		c-3.8-1.1-7.3-1.5-10.9-1.5c-10.8,0-21.5,3.4-29.7,11.1l-17.2,77.9h-33.8l25.4-115L630.7,99.7L630.7,99.7z"/>
	<polygon class="st1" points="565.8,18 571.5,35.5 590,35.5 575,46.4 580.8,64 565.8,53.1 550.9,64 556.6,46.4 541.6,35.5 
		560.1,35.5 	"/>
</g>
</svg>
