<?xml version="1.0" encoding="utf-8"?>
<!-- Generator: Adobe Illustrator 21.0.0, SVG Export Plug-In . SVG Version: 6.00 Build 0)  -->
<svg version="1.1" id="_图层_1" xmlns="http://www.w3.org/2000/svg" xmlns:xlink="http://www.w3.org/1999/xlink" x="0px" y="0px"
	 viewBox="0 0 722 321" style="enable-background:new 0 0 722 321;" xml:space="preserve">
<style type="text/css">
	.st0{fill:#57A2DA;}
	.st1{fill:#181818;}
</style>
<path class="st0" d="M527.3,66.7C475.5,43,423.8,48.6,382,72.2c-14.9,8.5-60.7,42-23.1,63.1c0,0,0,0,0,0c17.4,9.2,34.8,23.2,33.8,49
	c-0.8,8-3,16.6-6.7,25.2c-0.5,1.1-1,2.3-1.6,3.4c-47.9,99.6-192,140-318.4,61.4c-2-1.2,2.1-2.7,4.2-3.4c1-0.3,113.7,71.6,225.5,2.3
	c97.6-60.4,55.5-106.2,30.4-113.8c0,0,0,0-0.1,0c-49-16.1-70.6-81.9,53.5-134.7c71-30.2,160.3-23.6,209.2,19.4
	C588.8,44.2,546.8,60.5,527.3,66.7L527.3,66.7z"/>
<path class="st1" d="M45.1,65.8h112.1L150.2,97H75.7l-7.6,34.4h64.7l-6.4,29.1H61.7L54,195.2h74.5l-6.9,31.2H9.5L45.1,65.8
	L45.1,65.8z"/>
<path class="st1" d="M203.8,102l-3.3,14.9c13.3-9.9,29.9-15.6,44.2-15.6c23.5,0,34.9,15.1,30,37.2L255.4,226h-36.4l18-81.2
	c2-9-5.1-15.1-15.1-15.1c-6.4,0-18.6,4.8-26.6,11L176.4,226h-36.4L167.3,102L203.8,102L203.8,102z"/>
<path class="st1" d="M424.1,102.5l7.8-35.4h34.2l-7.8,35.4h23.7l-6.2,28h-23.7l-11.8,53.2c-2.8,12.6-1.5,16.1,9.2,16.1
	c4.6,0,7.6-0.2,10.2-0.9l-6.2,28.2c-6.5,0.7-12.5,1.2-18,1.2c-10.5,0-18-1.2-22.8-3.2c-9.3-4.4-12.6-14.2-8.3-33.7l13.4-60.8h-17.8
	l6.2-28L424.1,102.5L424.1,102.5z"/>
<path class="st1" d="M479.6,164.7c8.5-38.6,36.7-65.2,70.4-65.2c10.2,0,20.3,4.1,27.9,10.8l1.7-7.8h36.4l-21,95
	c-2.7,12.4-3.3,22-1.8,28.9h-34.2c-0.7-2.1-1-4.8-0.9-8.3c-11,7.6-23,11.2-36,11.2C488.3,229.4,470.9,204.2,479.6,164.7L479.6,164.7
	z M536,203c7.3,0,18-2.1,27-12.8l11.4-51.4c-4.2-10.8-13.8-12.6-21.3-12.6c-16.2,0-33.8,17-38.6,38.6C509.8,185.8,519.8,203,536,203
	L536,203z"/>
<path class="st1" d="M675.3,102.5l-2.9,13.3c9.8-8.5,22.8-13.5,33.7-13.5c3.9,0,7.2,0.5,10.3,1.6l-6.2,28.2
	c-4.1-1.1-7.8-1.6-11.7-1.6c-11.6,0-23.1,3.7-32,11.9l-18.6,84h-36.4l27.4-123.9L675.3,102.5L675.3,102.5z"/>
<polygon class="st1" points="605.3,14.4 611.5,33.3 631.4,33.3 615.3,45 621.4,63.9 605.3,52.2 589.2,63.9 595.4,45 579.3,33.3 
	599.2,33.3 "/>
</svg>
