<?xml version="1.0" encoding="utf-8"?>
<!-- Generator: Adobe Illustrator 21.0.0, SVG Export Plug-In . SVG Version: 6.00 Build 0)  -->
<svg version="1.1" id="图层_1" xmlns="http://www.w3.org/2000/svg" xmlns:xlink="http://www.w3.org/1999/xlink" x="0px" y="0px"
	 viewBox="0 0 575 542.4" style="enable-background:new 0 0 575 542.4;" xml:space="preserve">
<g>
	<path d="M371.5,414.5c-30.9,0-60-10.1-84.2-29.2l-0.3-0.2l-0.3,0.2c-24.2,19.1-53.3,29.2-84.2,29.2c-75,0-136-61-136-136
		c0-75,61-136,136-136c30.9,0,60,10.1,84.2,29.2l0.3,0.2l0.3-0.2c24.2-19.1,53.3-29.2,84.2-29.2c75,0,136,61,136,136
		C507.5,353.5,446.5,414.5,371.5,414.5z M220.5,211.3c-0.3,0-0.6,0-0.9,0.1l-63,18.5c-1.3,0.4-2.2,1.6-2.2,2.9v110.6
		c0,1.7,1.3,3,3,3h110.6c1.3,0,2.5-0.9,2.9-2.2l18.5-63c0.2-0.6,0.2-1.2,0-1.7c0.5,0.5,1.2,0.7,2,0.7h61.2c1.1,0,2,0.9,2,2v61.2
		c0,1.7,1.3,3,3,3c0.3,0,0.6,0,0.9-0.1l63-18.5c1.3-0.4,2.2-1.6,2.2-2.9V214.3c0-1.7-1.3-3-3-3H310c-1.3,0-2.5,0.9-2.9,2.2l-18.5,63
		c-0.2,0.6-0.2,1.2,0,1.7c-0.5-0.5-1.2-0.7-2-0.7h-61.2c-1.1,0-2-0.9-2-2v-61.2C223.5,212.7,222.2,211.3,220.5,211.3z"/>
	<path d="M371.5,143c36.2,0,70.2,14.1,95.8,39.7c25.6,25.6,39.7,59.6,39.7,95.8s-14.1,70.2-39.7,95.8S407.7,414,371.5,414
		c-30.8,0-59.8-10.1-83.9-29.1l-0.6-0.5l-0.6,0.5c-24.1,19-53.1,29.1-83.9,29.1c-36.2,0-70.2-14.1-95.8-39.7
		C81.1,348.7,67,314.7,67,278.5s14.1-70.2,39.7-95.8c25.6-25.6,59.6-39.7,95.8-39.7c30.8,0,59.8,10.1,83.9,29.1l0.6,0.5l0.6-0.5
		C311.7,153.1,340.7,143,371.5,143 M288,277.3c-0.4-0.2-0.9-0.3-1.3-0.3h-61.2c-0.8,0-1.5-0.7-1.5-1.5v-61.2c0-1.9-1.6-3.5-3.5-3.5
		c-0.3,0-0.7,0-1,0.1l-33.5,9.8l-29.5,8.7c-1.5,0.4-2.5,1.8-2.5,3.4v110.6c0,1.9,1.6,3.5,3.5,3.5h110.6c1.5,0,2.9-1,3.4-2.5
		l9.5-32.2l9.1-30.8c0.1-0.3,0.1-0.6,0.1-0.9c0.4,0.2,0.9,0.3,1.3,0.3h61.2c0.8,0,1.5,0.7,1.5,1.5v61.2c0,1.9,1.6,3.5,3.5,3.5
		c0.3,0,0.7,0,1-0.1l63-18.5c1.5-0.4,2.5-1.8,2.5-3.4V214.3c0-1.9-1.6-3.5-3.5-3.5H310c-1.5,0-2.9,1-3.4,2.5l-18.5,63
		C288.1,276.7,288,277,288,277.3 M371.5,142c-31.9,0-61.3,11-84.5,29.3C263.8,153,234.4,142,202.5,142C127.1,142,66,203.1,66,278.5
		S127.1,415,202.5,415c31.9,0,61.3-11,84.5-29.3c23.2,18.3,52.6,29.3,84.5,29.3c75.4,0,136.5-61.1,136.5-136.5S446.9,142,371.5,142
		L371.5,142z M291.5,279.8c-1.7,0-2.9-1.6-2.4-3.2l18.5-63c0.3-1.1,1.3-1.8,2.4-1.8h110.6c1.4,0,2.5,1.1,2.5,2.5V325
		c0,1.1-0.7,2.1-1.8,2.4l-63,18.5c-0.2,0.1-0.5,0.1-0.7,0.1c-1.3,0-2.5-1.1-2.5-2.5v-61.2c0-1.4-1.1-2.5-2.5-2.5H291.5L291.5,279.8z
		 M157.5,346c-1.4,0-2.5-1.1-2.5-2.5V232.9c0-1.1,0.7-2.1,1.8-2.4l29.5-8.7l33.5-9.8c0.2-0.1,0.5-0.1,0.7-0.1c1.3,0,2.5,1.1,2.5,2.5
		v61.2c0,1.4,1.1,2.5,2.5,2.5h61.2c1.7,0,2.9,1.6,2.4,3.2L280,312l-9.5,32.2c-0.3,1.1-1.3,1.8-2.4,1.8H157.5L157.5,346z"/>
</g>
</svg>
